<svg viewBox="0 0 214 339" fill="none" xmlns="http://www.w3.org/2000/svg">
    <path fill-rule="evenodd" clip-rule="evenodd"
        d="M90.7105 1.31363C72.4812 6.88726 62.3978 25.025 62.3449 52.3386C62.302 74.8049 68.701 90.9842 84.9879 109.581L90.927 116.362L88.4677 120.072C87.1149 122.113 78.7206 132.551 69.8134 143.267C48.6589 168.72 39.8236 183.038 31.5061 205.339C24.1772 224.993 20.8969 251.534 23.9637 266.371C26.7652 279.925 36.8755 294.219 49.1178 301.934C60.0842 308.845 67.2743 311.135 78.0042 311.135C88.9696 311.135 95.5392 309.242 105.84 303.113C109.508 300.93 112.72 299.145 112.978 299.145C113.237 299.145 115.337 302.854 117.644 307.388C126.652 325.081 135.977 334.327 147.633 337.128C165.287 341.37 184.784 331.483 193.395 313.922C196.39 307.814 197.854 300.337 196.089 300.152C195.609 300.101 194.231 302.992 193.028 306.575C190.468 314.194 184.753 322.925 179.903 326.631C178.021 328.069 173.906 330.454 170.758 331.931C165.954 334.186 163.676 334.617 156.556 334.617C145.623 334.617 138.981 331.613 131.617 323.339C127.223 318.402 116.65 300.043 116.65 297.352C116.65 296.822 119.129 294.512 122.159 292.221C146.127 274.097 170.962 238.832 181.879 207.418C190.06 183.878 191.325 164.289 185.806 146.636C184.209 141.531 184.213 141.502 186.822 138.075C190.687 132.999 192.472 126.922 192.472 118.838C192.472 110.057 190.636 104.358 185.696 97.8169C180.823 91.3629 175.523 88.3473 169.027 88.3303C163.308 88.3163 158.947 90.5396 155.678 95.1359C152.955 98.9669 154.894 100.842 157.826 97.2123C166.837 86.0551 182.121 91.6157 187.942 108.171C190.333 114.971 189.941 125.745 187.078 131.903C185.768 134.722 184.244 137.307 183.691 137.649C183.138 137.991 181.344 135.911 179.704 133.025C173.47 122.057 166.805 118.82 157.166 122.079C149.932 124.525 141.64 129.669 134.445 136.173L128.475 141.569L124.808 139.823C116.656 135.942 99.5698 121.665 96.7404 116.371C95.9233 114.841 96.7623 112.979 101.214 106.432C110.954 92.1063 118.242 75.3855 123.025 56.3904C129.551 30.4697 123.344 9.99681 106.673 2.45474C102.125 0.396352 95.3047 -0.0912637 90.7105 1.31363ZM103.932 5.80211C110.443 8.12928 114.338 11.9503 118.221 19.8181C121.384 26.2271 121.951 28.4653 122.395 36.2562C123.042 47.6063 121.708 54.5258 115.927 69.8248C110.793 83.4112 104.823 95.6066 98.3686 105.693L93.9589 112.583L91.2323 107.924C83.5133 94.7323 71.677 62.4326 69.557 48.7744C68.2361 40.264 69.6029 28.2235 72.7146 20.9522C78.2566 8.00337 91.758 1.45052 103.932 5.80211ZM0.920654 109.888C0.920654 110.28 2.49198 113.415 4.41248 116.854C6.98845 121.467 7.90431 124.31 7.90431 127.691C7.90431 130.213 8.35326 132.276 8.90197 132.276C9.45069 132.276 9.89964 130.071 9.89964 127.376C9.89964 123.621 10.7157 121.031 13.3915 116.288C17.2025 109.536 17.2933 109.294 16.0083 109.294C15.5265 109.294 13.8434 111.766 12.2671 114.788C10.6908 117.808 9.07157 120.281 8.66952 120.283C8.26746 120.284 6.81685 118.069 5.44606 115.36C3.1644 110.851 0.920654 108.138 0.920654 109.888ZM30.695 111.547C25.5241 115.925 24.4416 121.604 27.8037 126.713C30.3178 130.533 33.4425 132.197 38.1834 132.241C41.2473 132.269 42.7108 131.588 45.4165 128.878C48.3117 125.979 48.8086 124.794 48.8086 120.785C48.8086 116.776 48.3117 115.591 45.4165 112.691C42.5961 109.866 41.2932 109.295 37.6846 109.299C34.6437 109.302 32.5516 109.975 30.695 111.547ZM59.7829 118.548C59.7829 127.713 59.8976 128.225 62.4117 130.204C65.6482 132.754 67.868 132.821 70.7851 130.455C72.7834 128.834 73.0538 127.625 73.2504 119.436C73.3711 114.377 73.0837 109.998 72.6119 109.707C72.141 109.415 71.7549 113.217 71.7549 118.157C71.7549 127.908 70.6923 130.277 66.3186 130.277C62.4447 130.277 61.2953 127.692 61.0928 118.532C60.8344 106.812 59.7829 106.824 59.7829 118.548ZM41.8578 111.809C44.8189 113.343 47.8109 117.854 47.8109 120.785C47.8109 123.927 44.6313 128.459 41.5087 129.766C37.2057 131.566 33.3228 130.634 30.3408 127.085C26.2723 122.242 27.5563 114.685 32.9557 111.688C36.1013 109.941 38.3101 109.971 41.8578 111.809ZM104.269 128.606C109.972 133.731 117.232 139.442 120.403 141.297L126.168 144.669L121.998 151.027C104.575 177.595 96.4251 227.86 103.653 264.172C106.121 276.573 107.3 281.329 109.792 288.938C111.34 293.669 111.571 295.553 110.726 296.572C108.538 299.213 93.1119 306.223 87.0451 307.334C72.2228 310.048 55.2495 301.048 48.0463 286.655C44.6782 279.923 43.4302 271.536 43.4381 255.679C43.4531 228.267 50.4138 202.313 67.6904 165.25C74.6221 150.38 91.9795 119.286 93.3493 119.286C93.6516 119.286 98.5661 123.48 104.269 128.606ZM169.795 126.121C172.712 128.046 176.673 132.904 179.124 137.559C180.589 140.341 180.588 140.343 175.806 142.508C171.811 144.317 168.679 144.741 156.797 145.081L142.572 145.488L146.145 139.131C148.11 135.636 150.921 131.484 152.389 129.906C157.535 124.377 164.772 122.803 169.795 126.121ZM183.261 148.339C186.98 160.911 186.827 180.03 182.893 194.157C177.155 214.763 163.514 241.304 148.706 260.675C139.577 272.617 118.249 293.149 114.973 293.149C114.517 293.149 113.61 291.441 112.959 289.351C107.168 270.768 106.828 257.279 111.557 233.696C118.548 198.824 122.265 186.914 133.261 164.133L140.957 148.188L149.006 148.842C158.303 149.596 169.943 148.074 175.928 145.32C178.169 144.288 180.44 143.552 180.977 143.682C181.514 143.812 182.542 145.908 183.261 148.339ZM185.834 282.408L181.745 290.651L177.911 282.908C175.802 278.649 173.726 275.164 173.298 275.164C172.137 275.164 172.348 295.923 173.517 296.647C174.15 297.038 174.532 294.231 174.563 288.962L174.612 280.659L178.181 287.626L181.748 294.592L185.541 287.126L189.334 279.66L189.7 288.653C190.057 297.414 190.072 297.343 190.271 285.905C190.384 279.448 190.352 274.164 190.2 274.164C190.047 274.164 188.083 277.873 185.834 282.408ZM201.668 285.406L201.95 296.647L207.687 296.946C211.217 297.131 213.423 296.843 213.423 296.197C213.423 295.605 211.253 295.148 208.435 295.148H203.447V291.651C203.447 288.245 203.55 288.153 207.378 288.153C209.541 288.153 211.588 287.704 211.927 287.154C212.304 286.544 210.773 286.155 207.995 286.155H203.447V280.711V275.269L208.684 274.901L213.922 274.534L207.654 274.349L201.385 274.164L201.668 285.406Z"
        fill="black" />
</svg>